<svg id="Lag_1" data-name="Lag 1" xmlns="http://www.w3.org/2000/svg" viewBox="0 0 2791 1414.99"><defs><style>.cls-1{fill:#6598b7;}.cls-2{font-size:48px;fill:#f7f8f9;font-family:Montserrat-Bold, Montserrat;font-weight:700;}.cls-3{letter-spacing:-0.02em;}.cls-4{letter-spacing:-0.01em;}.cls-5{letter-spacing:0em;}.cls-6{letter-spacing:0em;}.cls-7{letter-spacing:0em;}.cls-8{letter-spacing:0.01em;}.cls-9{letter-spacing:0em;}.cls-10{letter-spacing:-0.01em;}.cls-11{letter-spacing:-0.01em;}.cls-12{letter-spacing:0em;}.cls-13{letter-spacing:0.01em;}.cls-14{letter-spacing:-0.02em;}.cls-15{letter-spacing:-0.01em;}.cls-16{font-family:Montserrat-Regular, Montserrat;font-weight:400;}.cls-17{letter-spacing:-0.02em;}.cls-18{letter-spacing:-0.01em;}.cls-19{letter-spacing:-0.01em;}.cls-20{letter-spacing:0em;}.cls-21{letter-spacing:-0.01em;}.cls-22{letter-spacing:0em;}.cls-23{letter-spacing:-0.01em;}.cls-24{letter-spacing:0em;}.cls-25{letter-spacing:-0.01em;}.cls-26{letter-spacing:-0.02em;}.cls-27{letter-spacing:0em;}.cls-28{letter-spacing:0.01em;}.cls-29{letter-spacing:-0.02em;}.cls-30{letter-spacing:0em;}.cls-31{letter-spacing:0em;}.cls-32{letter-spacing:0em;}.cls-33{letter-spacing:-0.05em;}.cls-34{letter-spacing:0em;}.cls-35{letter-spacing:0.02em;}.cls-36{letter-spacing:-0.02em;}.cls-37{letter-spacing:0.01em;}.cls-38{letter-spacing:-0.01em;}.cls-39{letter-spacing:0.19em;}.cls-40{letter-spacing:-0.01em;}.cls-41{letter-spacing:-0.02em;}.cls-42{letter-spacing:0em;}.cls-43{letter-spacing:-0.02em;}.cls-44{letter-spacing:-0.01em;}.cls-45{letter-spacing:-0.02em;}.cls-46{letter-spacing:-0.01em;}.cls-47{letter-spacing:-0.01em;}.cls-48{letter-spacing:-0.03em;}.cls-49{letter-spacing:-0.01em;}.cls-50{letter-spacing:0em;}.cls-51{letter-spacing:-0.01em;}.cls-52{letter-spacing:0em;}</style></defs><title>covidtekst</title><rect class="cls-1" width="2791" height="1414.99"/><text class="cls-2" transform="translate(352.48 242.63)"><tspan class="cls-3">C</tspan><tspan class="cls-4" x="34.27" y="0">o</tspan><tspan x="64.99" y="0">vid 1</tspan><tspan class="cls-5" x="173.76" y="0">9</tspan><tspan x="204.53" y="0">- </tspan><tspan class="cls-6" x="236.64" y="0">V</tspan><tspan class="cls-7" x="272.2" y="0">i åb</tspan><tspan class="cls-8" x="362.97" y="0">n</tspan><tspan x="396.43" y="0">er igen 8 Juni </tspan><tspan class="cls-9" x="751.48" y="0">2</tspan><tspan class="cls-10" x="779.7" y="0">0</tspan><tspan class="cls-9" x="812.01" y="0">2</tspan><tspan class="cls-11" x="840.23" y="0">0</tspan><tspan x="872.2" y="0">, boo</tspan><tspan class="cls-12" x="994.36" y="0">k</tspan><tspan x="1025.85" y="0">i</tspan><tspan class="cls-8" x="1040.29" y="0">n</tspan><tspan x="1073.75" y="0">g er åben, pr d</tspan><tspan class="cls-13" x="1438.45" y="0">a</tspan><tspan x="1468.35" y="0">gs da</tspan><tspan class="cls-14" x="1603.85" y="0">t</tspan><tspan class="cls-15" x="1623.92" y="0">o</tspan><tspan x="1655.02" y="0">.</tspan><tspan class="cls-16"><tspan class="cls-17" x="0" y="115.2">V</tspan><tspan x="32.64" y="115.2">i har natu</tspan><tspan class="cls-18" x="263.37" y="115.2">r</tspan><tspan x="282.24" y="115.2">ligvis </tspan><tspan class="cls-19" x="415.96" y="115.2">f</tspan><tspan x="431.8" y="115.2">o</tspan><tspan class="cls-11" x="461.9" y="115.2">r</tspan><tspan x="480.52" y="115.2">et</tspan><tspan class="cls-20" x="529" y="115.2">a</tspan><tspan x="557.42" y="115.2">get </tspan><tspan class="cls-4" x="651.4" y="115.2">v</tspan><tspan x="676.7" y="115.2">o</tspan><tspan class="cls-21" x="706.79" y="115.2">r</tspan><tspan class="cls-22" x="725.42" y="115.2">es </tspan><tspan class="cls-23" x="790.46" y="115.2">f</tspan><tspan x="806.29" y="115.2">o</tspan><tspan class="cls-23" x="836.39" y="115.2">r</tspan><tspan x="855.21" y="115.2">ansta</tspan><tspan class="cls-20" x="987.3" y="115.2">l</tspan><tspan x="1000.31" y="115.2">tni</tspan><tspan class="cls-24" x="1065.2" y="115.2">n</tspan><tspan x="1097.79" y="115.2">ge</tspan><tspan class="cls-25" x="1159.71" y="115.2">r</tspan><tspan x="1178.48" y="115.2">, så det er fuld</tspan><tspan class="cls-26" x="1514.04" y="115.2">k</tspan><tspan x="1541.88" y="115.2">om</tspan><tspan class="cls-24" x="1622.9" y="115.2">m</tspan><tspan class="cls-27" x="1673.93" y="115.2">ent sik</tspan><tspan class="cls-26" x="1832.71" y="115.2">k</tspan><tspan class="cls-22" x="1860.55" y="115.2">e</tspan><tspan class="cls-28" x="1889.54" y="115.2">r</tspan><tspan x="1909.51" y="115.2">t at </tspan><tspan class="cls-29" x="0" y="172.8">v</tspan><tspan x="25.25" y="172.8">æ</tspan><tspan class="cls-11" x="72.58" y="172.8">r</tspan><tspan x="91.2" y="172.8">e </tspan><tspan class="cls-30" x="132.77" y="172.8">p</tspan><tspan class="cls-31" x="165.17" y="172.8">å besøg </tspan><tspan class="cls-32" x="366.67" y="172.8">h</tspan><tspan x="399.26" y="172.8">os os.</tspan><tspan class="cls-33" x="0" y="230.4">V</tspan><tspan x="30.86" y="230.4">o</tspan><tspan class="cls-11" x="60.96" y="230.4">r</tspan><tspan x="79.58" y="230.4">es </tspan><tspan class="cls-25" x="144.62" y="230.4">f</tspan><tspan x="160.41" y="230.4">a</tspan><tspan class="cls-32" x="188.73" y="230.4">n</tspan><tspan x="221.33" y="230.4">ge</tspan><tspan class="cls-18" x="283.24" y="230.4">r</tspan><tspan class="cls-20" x="302.11" y="230.4">n</tspan><tspan x="334.7" y="230.4">e </tspan><tspan class="cls-34" x="376.27" y="230.4">p</tspan><tspan x="408.67" y="230.4">å </tspan><tspan class="cls-23" x="449.56" y="230.4">f</tspan><tspan x="465.4" y="230.4">o</tspan><tspan class="cls-35" x="495.5" y="230.4">r</tspan><tspan class="cls-36" x="515.46" y="230.4">t</tspan><tspan x="534.04" y="230.4">e</tspan><tspan class="cls-37" x="563.03" y="230.4">t</tspan><tspan x="583" y="230.4">, eg</tspan><tspan class="cls-20" x="667.67" y="230.4">n</tspan><tspan x="700.26" y="230.4">er sig fint til disse tide</tspan><tspan class="cls-25" x="1226.33" y="230.4">r</tspan><tspan x="1245.1" y="230.4">, da man er mi</tspan><tspan class="cls-20" x="1590.26" y="230.4">n</tspan><tspan x="1622.85" y="230.4">d</tspan><tspan class="cls-11" x="1655.4" y="230.4">r</tspan><tspan x="1674.02" y="230.4">e </tspan><tspan class="cls-20" x="1715.59" y="230.4">h</tspan><tspan x="1748.18" y="230.4">old, der b</tspan><tspan x="2001.38" y="230.4">-</tspan><tspan class="cls-29" x="0" y="288">v</tspan><tspan x="25.25" y="288">æger sig ru</tspan><tspan class="cls-20" x="299.76" y="288">nd</tspan><tspan x="364.99" y="288">t </tspan><tspan class="cls-32" x="397.05" y="288">m</tspan><tspan x="448.07" y="288">ed en instruk</tspan><tspan class="cls-3" x="765.01" y="288">t</tspan><tspan x="783.59" y="288">ø</tspan><tspan class="cls-25" x="813.68" y="288">r</tspan><tspan x="832.45" y="288">, </tspan><tspan class="cls-23" x="855.2" y="288">f</tspan><tspan x="871.04" y="288">o</tspan><tspan class="cls-12" x="901.14" y="288">r</tspan><tspan class="cls-22" x="920.19" y="288">s</tspan><tspan class="cls-38" x="943.66" y="288">k</tspan><tspan x="972.03" y="288">u</tspan><tspan class="cls-20" x="1004.33" y="288">d</tspan><tspan class="cls-22" x="1036.97" y="288">t af hina</tspan><tspan class="cls-24" x="1232.43" y="288">n</tspan><tspan x="1265.02" y="288">den.</tspan><tspan x="0" y="403.2">•</tspan><tspan class="cls-39" x="14.16" y="403.2">	</tspan><tspan class="cls-33" x="36" y="403.2">V</tspan><tspan class="cls-7" x="66.86" y="403.2">ed </tspan><tspan class="cls-40" x="140.98" y="403.2">h</tspan><tspan class="cls-41" x="172.99" y="403.2">v</tspan><tspan x="198.29" y="403.2">er </tspan><tspan class="cls-42" x="259.1" y="403.2">b</tspan><tspan class="cls-7" x="291.5" y="403.2">a</tspan><tspan class="cls-32" x="319.82" y="403.2">n</tspan><tspan x="352.41" y="403.2">e vil der </tspan><tspan class="cls-43" x="551.75" y="403.2">v</tspan><tspan x="577" y="403.2">æ</tspan><tspan class="cls-21" x="624.33" y="403.2">r</tspan><tspan class="cls-22" x="642.95" y="403.2">e en </tspan><tspan class="cls-38" x="758.58" y="403.2">k</tspan><tspan x="786.95" y="403.2">asse </tspan><tspan class="cls-20" x="903.78" y="403.2">m</tspan><tspan class="cls-22" x="954.8" y="403.2">ed e</tspan><tspan class="cls-20" x="1057.91" y="403.2">n</tspan><tspan x="1090.5" y="403.2">ga</tspan><tspan class="cls-20" x="1151.75" y="403.2">n</tspan><tspan x="1184.34" y="403.2">gsha</tspan><tspan class="cls-20" x="1301.55" y="403.2">n</tspan><tspan x="1334.14" y="403.2">ds</tspan><tspan class="cls-26" x="1390.16" y="403.2">k</tspan><tspan x="1418" y="403.2">e</tspan><tspan class="cls-25" x="1446.99" y="403.2">r</tspan><tspan x="1465.76" y="403.2">, hå</tspan><tspan class="cls-20" x="1549.32" y="403.2">n</tspan><tspan x="1581.91" y="403.2">dsp</tspan><tspan class="cls-18" x="1670.47" y="403.2">r</tspan><tspan x="1689.33" y="403.2">i</tspan><tspan class="cls-37" x="1702.25" y="403.2">t</tspan><tspan x="1722.21" y="403.2">, samt </tspan><tspan class="cls-44" x="1879.75" y="403.2">f</tspan><tspan x="1895.59" y="403.2">o</tspan><tspan class="cls-12" x="1925.68" y="403.2">r</tspan><tspan x="1944.74" y="403.2">s</tspan><tspan class="cls-45" x="1968.21" y="403.2">t</tspan><tspan x="1986.79" y="403.2">ø</tspan><tspan x="2016.88" y="403.2">-</tspan><tspan class="cls-4" x="0" y="460.8">v</tspan><tspan x="25.3" y="460.8">e</tspan><tspan class="cls-46" x="54.29" y="460.8">r</tspan><tspan x="72.91" y="460.8">e </tspan><tspan class="cls-32" x="114.48" y="460.8">m</tspan><tspan x="165.5" y="460.8">ed sp</tspan><tspan class="cls-18" x="295.63" y="460.8">r</tspan><tspan x="314.49" y="460.8">i</tspan><tspan class="cls-37" x="327.4" y="460.8">t</tspan><tspan x="347.37" y="460.8">.</tspan><tspan x="0" y="518.4">•</tspan><tspan class="cls-39" x="14.16" y="518.4">	</tspan><tspan class="cls-17" x="36" y="518.4">V</tspan><tspan class="cls-7" x="68.64" y="518.4">i har </tspan><tspan class="cls-30" x="186.77" y="518.4">p</tspan><tspan class="cls-31" x="219.17" y="518.4">å </tspan><tspan class="cls-38" x="260.06" y="518.4">h</tspan><tspan class="cls-4" x="292.08" y="518.4">v</tspan><tspan x="317.37" y="518.4">e</tspan><tspan class="cls-28" x="346.36" y="518.4">r</tspan><tspan x="366.33" y="518.4">t a</tspan><tspan class="cls-18" x="426.71" y="518.4">r</tspan><tspan class="cls-44" x="445.58" y="518.4">r</tspan><tspan class="cls-31" x="464.39" y="518.4">a</tspan><tspan class="cls-32" x="492.71" y="518.4">n</tspan><tspan x="525.3" y="518.4">ge</tspan><tspan class="cls-20" x="587.22" y="518.4">m</tspan><tspan x="638.25" y="518.4">ent en e</tspan><tspan class="cls-29" x="834.85" y="518.4">k</tspan><tspan x="862.93" y="518.4">st</tspan><tspan class="cls-44" x="905.89" y="518.4">r</tspan><tspan x="924.71" y="518.4">a </tspan><tspan class="cls-34" x="965.6" y="518.4">p</tspan><tspan class="cls-27" x="998" y="518.4">å, som sp</tspan><tspan class="cls-18" x="1222.16" y="518.4">r</tspan><tspan x="1241.02" y="518.4">i</tspan><tspan class="cls-47" x="1253.93" y="518.4">t</tspan><tspan class="cls-3" x="1272.75" y="518.4">t</tspan><tspan x="1291.33" y="518.4">er </tspan><tspan class="cls-4" x="1352.14" y="518.4">v</tspan><tspan x="1377.44" y="518.4">o</tspan><tspan class="cls-11" x="1407.53" y="518.4">r</tspan><tspan class="cls-27" x="1426.16" y="518.4">e ti</tspan><tspan class="cls-20" x="1500.12" y="518.4">n</tspan><tspan x="1532.71" y="518.4">g af (bes</tspan><tspan class="cls-48" x="1736.18" y="518.4">k</tspan><tspan class="cls-28" x="1763.74" y="518.4">y</tspan><tspan class="cls-49" x="1790.47" y="518.4">t</tspan><tspan class="cls-45" x="1809.29" y="518.4">t</tspan><tspan x="1827.86" y="518.4">elsesb</tspan><tspan class="cls-18" x="1978.24" y="518.4">r</tspan><tspan x="1997.11" y="518.4">il</tspan><tspan x="2022.93" y="518.4">-</tspan><tspan x="0" y="576">le</tspan><tspan class="cls-25" x="41.9" y="576">r</tspan><tspan x="60.67" y="576">, </tspan><tspan class="cls-32" x="83.42" y="576">m</tspan><tspan x="134.45" y="576">øn</tspan><tspan class="cls-3" x="197.04" y="576">t</tspan><tspan x="215.61" y="576">e</tspan><tspan class="cls-25" x="244.6" y="576">r</tspan><tspan x="263.37" y="576">, m.m.)</tspan><tspan x="0" y="633.6">•</tspan><tspan class="cls-39" x="14.16" y="633.6">	</tspan><tspan class="cls-17" x="36" y="633.6">V</tspan><tspan class="cls-7" x="68.64" y="633.6">i har t</tspan><tspan class="cls-50" x="206.25" y="633.6">a</tspan><tspan class="cls-7" x="234.67" y="633.6">get 5 </tspan><tspan class="cls-30" x="368.39" y="633.6">b</tspan><tspan class="cls-31" x="400.79" y="633.6">a</tspan><tspan class="cls-32" x="429.11" y="633.6">n</tspan><tspan x="461.71" y="633.6">er ud af </tspan><tspan class="cls-25" x="657.11" y="633.6">k</tspan><tspan x="685.48" y="633.6">ataloge</tspan><tspan class="cls-37" x="866.53" y="633.6">t</tspan><tspan x="886.5" y="633.6">, </tspan><tspan class="cls-25" x="909.25" y="633.6">h</tspan><tspan class="cls-4" x="941.27" y="633.6">v</tspan><tspan x="966.56" y="633.6">or vi ik</tspan><tspan class="cls-26" x="1121.75" y="633.6">k</tspan><tspan x="1149.59" y="633.6">e </tspan><tspan class="cls-25" x="1191.15" y="633.6">k</tspan><tspan x="1219.52" y="633.6">an ga</tspan><tspan class="cls-23" x="1354.16" y="633.6">r</tspan><tspan x="1372.97" y="633.6">an</tspan><tspan class="cls-3" x="1433.79" y="633.6">t</tspan><tspan x="1452.36" y="633.6">e</tspan><tspan class="cls-11" x="1481.36" y="633.6">r</tspan><tspan x="1499.98" y="633.6">e sik</tspan><tspan class="cls-26" x="1606.78" y="633.6">k</tspan><tspan x="1634.62" y="633.6">e</tspan><tspan class="cls-18" x="1663.61" y="633.6">r</tspan><tspan class="cls-20" x="1682.47" y="633.6">h</tspan><tspan x="1715.06" y="633.6">eden (e</tspan><tspan class="cls-29" x="1895.44" y="633.6">k</tspan><tspan x="1923.52" y="633.6">sl. Pu</tspan><tspan x="2049.42" y="633.6">-</tspan><tspan x="0" y="691.2">s</tspan><tspan class="cls-3" x="23.47" y="691.2">t</tspan><tspan x="42.05" y="691.2">e</tspan><tspan class="cls-11" x="71.04" y="691.2">r</tspan><tspan x="89.66" y="691.2">ø</tspan><tspan class="cls-25" x="119.76" y="691.2">r</tspan><tspan x="138.53" y="691.2">, </tspan><tspan class="cls-51" x="161.28" y="691.2">k</tspan><tspan class="cls-23" x="189.74" y="691.2">r</tspan><tspan x="208.56" y="691.2">am</tspan><tspan class="cls-20" x="287.8" y="691.2">m</tspan><tspan x="338.83" y="691.2">e</tspan><tspan class="cls-34" x="367.82" y="691.2">b</tspan><tspan class="cls-7" x="400.22" y="691.2">a</tspan><tspan class="cls-20" x="428.54" y="691.2">n</tspan><tspan x="461.13" y="691.2">er m.m.)</tspan><tspan x="0" y="806.4">Da vi har </tspan><tspan class="cls-20" x="224.69" y="806.4">m</tspan><tspan x="275.71" y="806.4">eget specielle tider vil det </tspan><tspan class="cls-29" x="903.78" y="806.4">v</tspan><tspan x="929.03" y="806.4">æ</tspan><tspan class="cls-11" x="976.35" y="806.4">r</tspan><tspan x="994.98" y="806.4">e muligt i </tspan><tspan class="cls-25" x="1236.08" y="806.4">h</tspan><tspan class="cls-41" x="1268.1" y="806.4">v</tspan><tspan class="cls-22" x="1293.39" y="806.4">e</tspan><tspan class="cls-21" x="1322.38" y="806.4">r</tspan><tspan x="1341.01" y="806.4">d</tspan><tspan class="cls-24" x="1373.55" y="806.4">a</tspan><tspan x="1401.97" y="806.4">ge</tspan><tspan class="cls-24" x="1463.88" y="806.4">n</tspan><tspan x="1496.48" y="806.4">e at boo</tspan><tspan class="cls-26" x="1691.16" y="806.4">k</tspan><tspan x="1719" y="806.4">e små sels</tspan><tspan class="cls-25" x="1964.71" y="806.4">k</tspan><tspan class="cls-27" x="1993.08" y="806.4">a</tspan><tspan x="2021.4" y="806.4">-</tspan><tspan x="0" y="864">ber </tspan><tspan class="cls-20" x="93.36" y="864">n</tspan><tspan x="125.95" y="864">ed til 5 de</tspan><tspan class="cls-32" x="359.23" y="864">l</tspan><tspan x="372.23" y="864">t</tspan><tspan class="cls-20" x="391.72" y="864">a</tspan><tspan class="cls-7" x="420.14" y="864">ge</tspan><tspan class="cls-46" x="482.06" y="864">r</tspan><tspan x="500.68" y="864">e i</tspan><tspan class="cls-20" x="555.16" y="864">n</tspan><tspan x="587.75" y="864">d </tspan><tspan class="cls-34" x="632.87" y="864">p</tspan><tspan x="665.27" y="864">å </tspan><tspan class="cls-23" x="706.16" y="864">f</tspan><tspan x="722" y="864">o</tspan><tspan class="cls-28" x="752.1" y="864">r</tspan><tspan class="cls-45" x="772.07" y="864">t</tspan><tspan class="cls-27" x="790.64" y="864">et i Gen</tspan><tspan class="cls-3" x="975.78" y="864">t</tspan><tspan x="994.35" y="864">of</tspan><tspan class="cls-3" x="1040.72" y="864">t</tspan><tspan x="1059.29" y="864">e i</tspan><tspan class="cls-20" x="1113.77" y="864">nd</tspan><tspan class="cls-22" x="1179" y="864">til 1 aug. </tspan><tspan class="cls-52" x="1383.1" y="864">2</tspan><tspan class="cls-9" x="1410.17" y="864">0</tspan><tspan class="cls-12" x="1441.85" y="864">2</tspan><tspan x="1468.92" y="864">0</tspan><tspan x="0" y="921.6">Så ma</tspan><tspan class="cls-20" x="149.66" y="921.6">n</tspan><tspan x="182.25" y="921.6">gler man </tspan><tspan class="cls-20" x="413.23" y="921.6">n</tspan><tspan x="445.82" y="921.6">oget at l</tspan><tspan class="cls-25" x="643.19" y="921.6">a</tspan><tspan class="cls-4" x="671.03" y="921.6">v</tspan><tspan x="696.33" y="921.6">e i som</tspan><tspan class="cls-20" x="867.88" y="921.6">m</tspan><tspan x="918.9" y="921.6">er</tspan><tspan class="cls-44" x="967.14" y="921.6">f</tspan><tspan class="cls-27" x="982.98" y="921.6">e</tspan><tspan class="cls-18" x="1011.97" y="921.6">r</tspan><tspan x="1030.83" y="921.6">ien </tspan><tspan class="cls-20" x="1117.81" y="921.6">m</tspan><tspan x="1168.83" y="921.6">ed </tspan><tspan class="cls-38" x="1242.94" y="921.6">f</tspan><tspan x="1258.73" y="921.6">amilien eller </tspan><tspan class="cls-4" x="1566.41" y="921.6">v</tspan><tspan x="1591.7" y="921.6">en</tspan><tspan class="cls-20" x="1653.19" y="921.6">n</tspan><tspan class="cls-22" x="1685.78" y="921.6">e</tspan><tspan class="cls-18" x="1714.77" y="921.6">r</tspan><tspan class="cls-20" x="1733.64" y="921.6">n</tspan><tspan x="1766.23" y="921.6">e……</tspan></tspan></text></svg>